<svg width="101" height="101" viewBox="0 0 101 101" fill="none" xmlns="http://www.w3.org/2000/svg">
    <path
        d="M45.2762 5.40998C48.2435 2.84497 52.6432 2.84497 55.6105 5.40998V5.40998C57.7157 7.22969 60.6228 7.80795 63.264 6.93235V6.93235C66.9871 5.69814 71.0519 7.38185 72.8118 10.8871V10.8871C74.0603 13.3739 76.5248 15.0207 79.3001 15.2225V15.2225C83.212 15.507 86.3231 18.6181 86.6076 22.53V22.53C86.8094 25.3053 88.4561 27.7698 90.9429 29.0183V29.0183C94.4482 30.7782 96.1319 34.843 94.8977 38.566V38.566C94.0221 41.2073 94.6004 44.1144 96.4201 46.2195V46.2195C98.9851 49.1868 98.9851 53.5866 96.4201 56.5539V56.5539C94.6004 58.659 94.0221 61.5661 94.8977 64.2074V64.2074C96.1319 67.9304 94.4482 71.9953 90.9429 73.7551V73.7551C88.4561 75.0036 86.8094 77.4682 86.6076 80.2434V80.2434C86.3231 84.1554 83.212 87.2665 79.3001 87.5509V87.5509C76.5248 87.7527 74.0603 89.3995 72.8118 91.8863V91.8863C71.0519 95.3916 66.9871 97.0753 63.264 95.8411V95.8411C60.6228 94.9655 57.7157 95.5437 55.6105 97.3635V97.3635C52.6432 99.9285 48.2435 99.9285 45.2762 97.3635V97.3635C43.1711 95.5437 40.2639 94.9655 37.6227 95.8411V95.8411C33.8997 97.0753 29.8348 95.3916 28.075 91.8863V91.8863C26.8265 89.3995 24.3619 87.7527 21.5866 87.5509V87.5509C17.6747 87.2665 14.5636 84.1554 14.2791 80.2434V80.2434C14.0773 77.4682 12.4306 75.0036 9.94378 73.7551V73.7551C6.43849 71.9953 4.75478 67.9304 5.98899 64.2074V64.2074C6.86459 61.5661 6.28633 58.659 4.46662 56.5539V56.5539C1.90161 53.5866 1.90161 49.1868 4.46662 46.2195V46.2195C6.28633 44.1144 6.86459 41.2073 5.98899 38.566V38.566C4.75478 34.843 6.43849 30.7782 9.94378 29.0183V29.0183C12.4306 27.7698 14.0773 25.3053 14.2791 22.53V22.53C14.5636 18.6181 17.6747 15.507 21.5866 15.2225V15.2225C24.3619 15.0207 26.8265 13.3739 28.075 10.8871V10.8871C29.8348 7.38185 33.8997 5.69814 37.6227 6.93235V6.93235C40.2639 7.80795 43.171 7.22969 45.2762 5.40998V5.40998Z"
        fill="#0EA5E9" />
    <rect x="16.8145" y="16.8142" width="67.2578" height="67.2578" rx="33.6289" fill="white" />
    <path d="M36.7554 50.4431L45.8834 59.5685L64.1317 41.3176" stroke="#0EA5E9"
        stroke-width="9.41609" stroke-linecap="round" stroke-linejoin="round" />
</svg>