<svg width="41" height="28" viewBox="0 0 41 28" fill="none" xmlns="http://www.w3.org/2000/svg">
    <path
        d="M1.66382 0.261963C3.51751 -0.207439 5.47692 -0.0424661 7.22437 0.72876C8.40735 1.25607 9.45614 2.03982 10.2908 3.02368C10.6927 3.52211 11.0568 4.0499 11.3796 4.60181L24.5388 26.2346C24.5456 26.2453 24.5497 26.2578 24.5505 26.2708C24.552 26.2826 24.5503 26.2955 24.5457 26.3069C24.5413 26.3184 24.5335 26.3297 24.5242 26.3381C24.5149 26.347 24.503 26.353 24.491 26.3567C24.0097 26.4974 23.5358 26.7033 23.0544 26.8225C21.4492 27.2271 19.9364 27.2105 18.5164 26.7717C16.45 26.1346 14.8454 24.8866 13.7029 23.0286C12.1363 20.481 10.562 17.9448 8.98022 15.4192L0.0202637 0.918213C0.0111301 0.908033 0.00485982 0.895368 0.00170898 0.88208C-0.0010088 0.868692 -0.000771114 0.854901 0.00366211 0.842041C0.00780764 0.828499 0.0157592 0.816281 0.026123 0.806885C0.0362013 0.797662 0.0497214 0.792064 0.0632324 0.789307C0.581105 0.570311 1.11693 0.39378 1.66382 0.261963ZM14.1433 0.800049C16.2957 0.0323889 18.4319 0.0564632 20.5505 0.874268C22.3396 1.62649 23.7681 2.8693 24.8357 4.60181C27.5863 9.06131 30.2977 13.4297 32.99 17.8303C32.9959 17.8417 32.9999 17.8541 33.0007 17.8665C33.0011 17.8796 32.9989 17.8934 32.9939 17.9055C32.9888 17.917 32.9813 17.928 32.9714 17.9368C32.9617 17.9455 32.9506 17.9516 32.9382 17.9553C32.3128 18.1416 31.671 18.3591 31.0203 18.4475C29.9398 18.5938 28.843 18.5662 27.7712 18.3665C25.6851 17.9048 23.8349 16.7176 22.5583 15.0208C22.269 14.6183 22.001 14.2013 21.7546 13.7717C19.2971 9.65088 16.8381 5.54137 14.3787 1.44263C14.2848 1.28054 14.186 1.10462 14.0964 0.917236C14.0914 0.906653 14.0879 0.894998 14.0876 0.883057C14.0871 0.871431 14.0889 0.859552 14.0935 0.848877C14.0978 0.837684 14.1046 0.827033 14.113 0.818604C14.1213 0.810214 14.1323 0.804595 14.1433 0.800049ZM35.533 0.102783C37.1109 -0.0323616 38.7944 0.355051 40.2341 1.02856C40.2559 1.03548 40.2765 1.04748 40.2927 1.06372C40.3091 1.0794 40.3211 1.09965 40.3279 1.12134C40.3351 1.14327 40.3363 1.1661 40.3328 1.18872C40.3286 1.21111 40.3192 1.23326 40.3054 1.25122C38.5182 4.37987 36.7229 7.52182 34.9187 10.676C34.7777 10.921 34.6533 11.1751 34.5466 11.4368C34.5423 11.4474 34.5358 11.4571 34.5271 11.4641C34.5179 11.471 34.507 11.476 34.4958 11.4778C34.4845 11.4797 34.4724 11.478 34.4617 11.4739C34.4511 11.4696 34.4413 11.4631 34.4343 11.4543C34.3237 11.3236 34.2242 11.1839 34.1375 11.0364C32.9379 8.97201 31.7144 6.87418 30.5603 4.85278C30.4413 4.66183 30.3482 4.45617 30.283 4.24146C30.2125 3.99012 30.2059 3.72561 30.2634 3.47095C30.3211 3.21631 30.442 2.97985 30.614 2.78247C31.8624 1.24971 33.565 0.265959 35.533 0.102783Z"
        fill="url(#paint0_linear_31_16571)" />
    <defs>
        <linearGradient id="paint0_linear_31_16571" x1="-0.000788958" y1="13.1387" x2="40.1724"
            y2="13.1387" gradientUnits="userSpaceOnUse">
            <stop stop-color="#1E3A8A" />
            <stop offset="1" stop-color="#0EA5E9" />
        </linearGradient>
    </defs>
</svg>